<svg width="32" height="28" viewBox="0 0 32 28" fill="none" xmlns="http://www.w3.org/2000/svg">
<path d="M31.9916 13.9727C31.9916 14.957 31.1582 15.7281 30.2137 15.7281H28.4358L28.4746 24.4891C28.4746 24.6367 28.4635 24.7844 28.4469 24.932V25.8125C28.4469 27.0211 27.4523 28 26.2245 28H25.3355C25.2744 28 25.2133 28 25.1521 27.9945C25.0744 28 24.9966 28 24.9188 28H21.7796C20.5517 28 19.5572 27.0211 19.5572 25.8125V21C19.5572 20.032 18.7627 19.25 17.7793 19.25H14.2234C13.24 19.25 12.4455 20.032 12.4455 21V25.8125C12.4455 27.0211 11.451 28 10.2231 28H7.11727C7.03393 28 6.95059 27.9945 6.86725 27.9891C6.80058 27.9945 6.73391 28 6.66723 28H5.77827C4.55039 28 3.55586 27.0211 3.55586 25.8125V19.6875C3.55586 19.6383 3.55586 19.5836 3.56141 19.5344V15.7281H1.77793C0.777844 15.7281 0 14.9625 0 13.9727C0 13.4805 0.166681 13.043 0.555603 12.6602L14.8013 0.4375C15.1902 0.0546875 15.6347 0 16.0236 0C16.4125 0 16.857 0.109375 17.1904 0.382812L31.3804 12.6602C31.8249 13.043 32.0472 13.4805 31.9916 13.9727Z" fill="#55A7D6"/>
</svg>
